<svg xmlns="http://www.w3.org/2000/svg" version="1.1" viewBox="-5.0 -10.0 110.0 135.0">
 <g>
  <path d="m79.367 37.5 7.4023-7.3984-3.5391-3.5352-5.9336 5.9336h-17.977l-6.3398 6.3398 3.5352 3.5352 4.875-4.875z"/>
  <path d="m29.949 44.09-3.5352-3.5352-1.9453 1.9453h-9.4688v5h11.539z"/>
  <path d="m25.832 75h5v-7.5h11.062l5.7344-5.7344-3.5352-3.5352-4.2695 4.2695h-13.992z"/>
  <path d="m71.668 22.5h-23.562l-5.7305 5.7305 3.5352 3.5352 4.2656-4.2656h21.492z"/>
  <path d="m51.16 65.301-17.195 17.199h-18.965v5h21.035l18.66-18.664z"/>
  <path d="m60.051 45.906 3.5352 3.5352 1.9414-1.9414h19.473v-5h-21.543z"/>
  <path d="m38.84 24.695 7.1953-7.1953h38.965v-5h-41.035l-8.6602 8.6602z"/>
  <path d="m17.5 57.5h13.18l6.3398-6.3438-3.5352-3.5312-4.875 4.875h-16.109v19.164h5z"/>
  <path d="m67.215 66.793c0.97656-0.97656 2.3281-2.0195 3.9062-2.7383l-52.586-52.59c-1.9531-1.9531-5.1172-1.9531-7.0703 0s-1.9531 5.1172 0 7.0703l52.766 52.766c0.59766-1.5703 1.5898-3.1133 2.9844-4.5078z"/>
  <path d="m20 45c0 6.668-10 6.668-10 0s10-6.668 10 0"/>
  <path d="m90 15c0 6.668-10 6.668-10 0s10-6.668 10 0"/>
  <path d="m90 28.332c0 6.668-10 6.668-10 0 0-6.6641 10-6.6641 10 0"/>
  <path d="m76.668 25c0 6.668-10 6.668-10 0s10-6.668 10 0"/>
  <path d="m90 45c0 6.668-10 6.668-10 0s10-6.668 10 0"/>
  <path d="m20 85c0 6.6641-10 6.6641-10 0 0-6.668 10-6.668 10 0"/>
  <path d="m20 71.664c0 6.668-10 6.668-10 0 0-6.6641 10-6.6641 10 0"/>
  <path d="m33.332 75c0 6.6641-10 6.6641-10 0 0-6.668 10-6.668 10 0"/>
  <path d="m86.23 76.383c0.80078-5.4883-0.69922-10.129-3.7773-13.203-5.2031-5.1992-12.375-3.957-17.594 1.2578-5.207 5.2031-6.4648 12.398-1.2617 17.602 6.625 6.6328 16.238 9.0195 26.402 7.543-3.0664-3.0703-4.5742-7.7148-3.7695-13.199zm-6.582 6.5742c-4.4922-0.76172-8.3711-2.6719-11.34-5.6367-1.0547-1.0547-1.4844-2.1406-1.3555-3.4102 0.15625-1.5195 1.1094-3.2539 2.6172-4.7617 1.4141-1.4141 5.0508-4.375 8.168-1.2539 1.6875 1.6836 2.3594 4.3555 1.8984 7.5234-0.38281 2.5938-0.36719 5.1328 0.011719 7.5391z"/>
 </g>
</svg>